# This file uses centimeters as units for non-parametric coordinates.

mtllib 2222.mtl
g default
v 41.896767 11.541211 0.595434
v 29.814342 11.541211 0.595434
v 41.896767 -11.541211 0.595434
v 29.814342 -11.541211 0.595434
v 41.896767 11.541211 0.223559
v 29.814342 11.541211 0.223559
v 41.896767 -11.541211 0.223559
v 29.814342 -11.541211 0.223559
v 42.205555 12.250000 0.600000
v 29.505556 12.250000 0.600000
v 29.505556 12.250000 -0.600000
v 42.205555 12.250000 -0.600000
v 42.205555 12.132843 0.882843
v 29.505556 12.132843 0.882843
v 29.305553 12.132843 0.800000
v 29.222713 12.132843 0.600000
v 29.222713 12.132843 -0.600000
v 29.305553 12.132843 -0.800000
v 29.505556 12.132843 -0.882843
v 42.205555 12.132843 -0.882843
v 42.405556 12.132843 -0.800000
v 42.488396 12.132843 -0.600000
v 42.488396 12.132843 0.600000
v 42.405556 12.132843 0.800000
v 42.205555 11.850000 1.000000
v 29.505556 11.850000 1.000000
v 29.222713 11.850000 0.882843
v 29.105555 11.850000 0.600000
v 29.105555 11.850000 -0.600000
v 29.222713 11.850000 -0.882843
v 29.505556 11.850000 -1.000000
v 42.205555 11.850000 -1.000000
v 42.488396 11.850000 -0.882843
v 42.605556 11.850000 -0.600000
v 42.605556 11.850000 0.600000
v 42.488396 11.850000 0.882843
v 42.205555 -11.850000 1.000000
v 29.505556 -11.850000 1.000000
v 29.222713 -11.850000 0.882843
v 29.105555 -11.850000 0.600000
v 29.105555 -11.850000 -0.600000
v 29.222713 -11.850000 -0.882843
v 29.505556 -11.850000 -1.000000
v 42.205555 -11.850000 -1.000000
v 42.488396 -11.850000 -0.882843
v 42.605556 -11.850000 -0.600000
v 42.605556 -11.850000 0.600000
v 42.488396 -11.850000 0.882843
v 42.205555 -12.132843 0.882843
v 29.505556 -12.132843 0.882843
v 29.305553 -12.132843 0.800000
v 29.222713 -12.132843 0.600000
v 29.222713 -12.132843 -0.600000
v 29.305553 -12.132843 -0.800000
v 29.505556 -12.132843 -0.882843
v 42.205555 -12.132843 -0.882843
v 42.405556 -12.132843 -0.800000
v 42.488396 -12.132843 -0.600000
v 42.488396 -12.132843 0.600000
v 42.405556 -12.132843 0.800000
v 42.205555 -12.250000 0.600000
v 29.505556 -12.250000 0.600000
v 29.505556 -12.250000 -0.600000
v 42.205555 -12.250000 -0.600000
v 41.896767 11.541211 1.000000
v 29.814342 11.541211 1.000000
v 41.896767 -11.541211 1.000000
v 29.814342 -11.541211 1.000000
v 41.896767 11.541211 0.012109
v 29.814342 11.541211 0.012109
v 41.896767 -11.541211 0.012109
v 29.814342 -11.541211 0.012109
vt 0.929169 0.302796
vt 0.929758 0.898158
vt 0.618118 0.898467
vt 0.617528 0.303105
vt 0.929159 0.293205
vt 0.607937 0.303114
vt 0.939350 0.898149
vt 0.618127 0.908059
vt 0.608526 0.898476
vt 0.929768 0.907750
vt 0.617519 0.293513
vt 0.938761 0.302787
vt 0.122457 0.103547
vt 0.122358 0.095926
vt 0.440556 0.092585
vt 0.440677 0.100221
vt 0.122257 0.088304
vt 0.440437 0.084950
vt 0.127825 0.798944
vt 0.127706 0.791309
vt 0.445904 0.787968
vt 0.446005 0.795590
vt 0.127585 0.783673
vt 0.445805 0.780346
vt 0.074280 0.140743
vt 0.069498 0.138293
vt 0.078633 0.133302
vt 0.071820 0.148034
vt 0.064278 0.146913
vt 0.075575 0.739073
vt 0.068069 0.740317
vt 0.077920 0.746278
vt 0.073449 0.748594
vt 0.082226 0.753359
vt 0.079561 0.140993
vt 0.079419 0.148420
vt 0.083170 0.738687
vt 0.083215 0.746071
vt 0.112785 0.134960
vt 0.110652 0.142021
vt 0.109239 0.149256
vt 0.112945 0.737830
vt 0.114321 0.745029
vt 0.116437 0.752474
vt 0.116577 0.142357
vt 0.116802 0.149266
vt 0.120522 0.737846
vt 0.120276 0.744688
vt 0.122915 0.141019
vt 0.124319 0.148589
vt 0.128065 0.738463
vt 0.126959 0.746082
vt 0.441171 0.130168
vt 0.441303 0.137811
vt 0.122826 0.133405
vt 0.440197 0.145430
vt 0.443943 0.735305
vt 0.445347 0.742875
vt 0.445436 0.750489
vt 0.127091 0.753726
vt 0.447986 0.139206
vt 0.451825 0.131420
vt 0.447740 0.146048
vt 0.451460 0.734628
vt 0.451685 0.741537
vt 0.455477 0.748934
vt 0.453941 0.138864
vt 0.455317 0.146064
vt 0.459023 0.734638
vt 0.457610 0.741873
vt 0.486036 0.130534
vt 0.485047 0.137823
vt 0.485092 0.145207
vt 0.488843 0.735474
vt 0.488701 0.742901
vt 0.489629 0.750592
vt 0.490342 0.137616
vt 0.492687 0.144821
vt 0.496442 0.735860
vt 0.493982 0.743151
vt 0.494813 0.135300
vt 0.500193 0.143577
vt 0.503984 0.736981
vt 0.498764 0.745601
vt 0.129890 0.080533
vt 0.432583 0.077332
vt 0.060323 0.732612
vt 0.056634 0.154679
vt 0.438372 0.803361
vt 0.135680 0.806562
vt 0.507939 0.151281
vt 0.511628 0.729215
vt 0.129545 0.055924
vt 0.432217 0.052708
vt 0.035701 0.732705
vt 0.032018 0.154782
vt 0.438717 0.827970
vt 0.136046 0.831186
vt 0.532561 0.151189
vt 0.536244 0.729113
vt 0.974256 0.235498
vt 0.574727 0.247838
vt 0.568275 0.038704
vt 0.967786 0.026368
vn 0.000000 0.000000 1.000000
vn 0.000000 0.000000 1.000000
vn 0.000000 0.000000 1.000000
vn 0.000000 0.000000 1.000000
vn 0.000000 -1.000000 0.000000
vn 0.000000 -1.000000 0.000000
vn 0.000000 -1.000000 0.000000
vn 0.000000 -1.000000 0.000000
vn 1.000000 0.000000 0.000000
vn 1.000000 0.000000 0.000000
vn 1.000000 0.000000 0.000000
vn 1.000000 0.000000 0.000000
vn -0.000000 1.000000 0.000000
vn -0.000000 1.000000 0.000000
vn -0.000000 1.000000 0.000000
vn -0.000000 1.000000 0.000000
vn -1.000000 -0.000000 0.000000
vn -1.000000 -0.000000 0.000000
vn -1.000000 -0.000000 0.000000
vn -1.000000 -0.000000 0.000000
vn -0.189136 0.963564 0.189136
vn -0.078521 0.921027 0.381501
vn 0.078521 0.921027 0.381501
vn 0.189136 0.963564 0.189136
vn -0.181729 0.376311 0.908496
vn -0.153371 0.153371 0.976194
vn 0.153371 0.153371 0.976194
vn 0.181729 0.376311 0.908496
vn -0.153371 -0.153371 0.976194
vn -0.181729 -0.376311 0.908496
vn 0.181729 -0.376311 0.908496
vn 0.153371 -0.153371 0.976194
vn -0.078521 -0.921027 0.381501
vn -0.189136 -0.963564 0.189136
vn 0.189136 -0.963564 0.189136
vn 0.078521 -0.921027 0.381501
vn -0.270597 0.923880 0.270597
vn -0.078521 0.921027 0.381501
vn -0.189136 0.963564 0.189136
vn -0.357407 0.357407 0.862856
vn -0.376311 0.181729 0.908496
vn -0.153371 0.153371 0.976194
vn -0.181729 0.376311 0.908496
vn -0.376311 0.181729 0.908496
vn -0.376311 -0.181729 0.908496
vn -0.153371 -0.153371 0.976194
vn -0.153371 0.153371 0.976194
vn -0.376311 -0.181729 0.908496
vn -0.357407 -0.357407 0.862856
vn -0.181729 -0.376311 0.908496
vn -0.153371 -0.153371 0.976194
vn -0.270597 -0.923880 0.270597
vn -0.189136 -0.963564 0.189136
vn -0.078521 -0.921027 0.381501
vn -0.381501 0.921027 0.078521
vn -0.270597 0.923880 0.270597
vn -0.189136 0.963564 0.189136
vn -0.908496 0.376311 0.181729
vn -0.962445 0.191962 0.191962
vn -0.908496 0.181729 0.376311
vn -0.862856 0.357407 0.357406
vn -0.962445 0.191962 0.191962
vn -0.962445 -0.191962 0.191962
vn -0.908496 -0.181729 0.376311
vn -0.908496 0.181729 0.376311
vn -0.962445 -0.191962 0.191962
vn -0.908496 -0.376311 0.181729
vn -0.862857 -0.357406 0.357406
vn -0.908496 -0.181729 0.376311
vn -0.381501 -0.921027 0.078521
vn -0.189136 -0.963564 0.189136
vn -0.270597 -0.923880 0.270597
vn -0.189136 0.963564 -0.189136
vn -0.381501 0.921027 -0.078521
vn -0.381501 0.921027 0.078521
vn -0.189136 0.963564 0.189136
vn -0.908496 0.376311 -0.181729
vn -0.962445 0.191962 -0.191962
vn -0.962445 0.191962 0.191962
vn -0.908496 0.376311 0.181729
vn -0.962445 0.191962 -0.191962
vn -0.962445 -0.191962 -0.191962
vn -0.962445 -0.191962 0.191962
vn -0.962445 0.191962 0.191962
vn -0.962445 -0.191962 -0.191962
vn -0.908496 -0.376311 -0.181729
vn -0.908496 -0.376311 0.181729
vn -0.962445 -0.191962 0.191962
vn -0.381501 -0.921027 -0.078521
vn -0.189136 -0.963564 -0.189136
vn -0.189136 -0.963564 0.189136
vn -0.381501 -0.921027 0.078521
vn -0.270597 0.923880 -0.270597
vn -0.381501 0.921027 -0.078521
vn -0.189136 0.963564 -0.189136
vn -0.862857 0.357406 -0.357406
vn -0.908496 0.181729 -0.376311
vn -0.962445 0.191962 -0.191962
vn -0.908496 0.376311 -0.181729
vn -0.908496 0.181729 -0.376311
vn -0.908496 -0.181729 -0.376311
vn -0.962445 -0.191962 -0.191962
vn -0.962445 0.191962 -0.191962
vn -0.908496 -0.181729 -0.376311
vn -0.862856 -0.357407 -0.357406
vn -0.908496 -0.376311 -0.181729
vn -0.962445 -0.191962 -0.191962
vn -0.270597 -0.923880 -0.270597
vn -0.189136 -0.963564 -0.189136
vn -0.381501 -0.921027 -0.078521
vn -0.078521 0.921027 -0.381501
vn -0.270597 0.923880 -0.270597
vn -0.189136 0.963564 -0.189136
vn -0.181729 0.376311 -0.908496
vn -0.191962 0.191962 -0.962445
vn -0.376311 0.181729 -0.908496
vn -0.357407 0.357407 -0.862856
vn -0.191962 0.191962 -0.962445
vn -0.191962 -0.191962 -0.962445
vn -0.376311 -0.181729 -0.908496
vn -0.376311 0.181729 -0.908496
vn -0.191962 -0.191962 -0.962445
vn -0.181729 -0.376311 -0.908496
vn -0.357407 -0.357407 -0.862856
vn -0.376311 -0.181729 -0.908496
vn -0.078521 -0.921027 -0.381501
vn -0.189136 -0.963564 -0.189136
vn -0.270597 -0.923880 -0.270597
vn 0.189136 0.963564 -0.189136
vn 0.078521 0.921027 -0.381501
vn -0.078521 0.921027 -0.381501
vn -0.189136 0.963564 -0.189136
vn 0.181729 0.376311 -0.908496
vn 0.191962 0.191962 -0.962445
vn -0.191962 0.191962 -0.962445
vn -0.181729 0.376311 -0.908496
vn 0.191962 0.191962 -0.962445
vn 0.191962 -0.191962 -0.962445
vn -0.191962 -0.191962 -0.962445
vn -0.191962 0.191962 -0.962445
vn 0.191962 -0.191962 -0.962445
vn 0.181729 -0.376311 -0.908496
vn -0.181729 -0.376311 -0.908496
vn -0.191962 -0.191962 -0.962445
vn 0.078521 -0.921027 -0.381501
vn 0.189136 -0.963564 -0.189136
vn -0.189136 -0.963564 -0.189136
vn -0.078521 -0.921027 -0.381501
vn 0.270597 0.923880 -0.270597
vn 0.078521 0.921027 -0.381501
vn 0.189136 0.963564 -0.189136
vn 0.357407 0.357407 -0.862856
vn 0.376311 0.181729 -0.908496
vn 0.191962 0.191962 -0.962445
vn 0.181729 0.376311 -0.908496
vn 0.376311 0.181729 -0.908496
vn 0.376311 -0.181729 -0.908496
vn 0.191962 -0.191962 -0.962445
vn 0.191962 0.191962 -0.962445
vn 0.376311 -0.181729 -0.908496
vn 0.357407 -0.357407 -0.862856
vn 0.181729 -0.376311 -0.908496
vn 0.191962 -0.191962 -0.962445
vn 0.270597 -0.923880 -0.270597
vn 0.189136 -0.963564 -0.189136
vn 0.078521 -0.921027 -0.381501
vn 0.381501 0.921027 -0.078521
vn 0.270597 0.923880 -0.270597
vn 0.189136 0.963564 -0.189136
vn 0.908496 0.376311 -0.181729
vn 0.962445 0.191962 -0.191962
vn 0.908496 0.181729 -0.376311
vn 0.862856 0.357407 -0.357406
vn 0.962445 0.191962 -0.191962
vn 0.962445 -0.191962 -0.191962
vn 0.908496 -0.181729 -0.376311
vn 0.908496 0.181729 -0.376311
vn 0.962445 -0.191962 -0.191962
vn 0.908496 -0.376311 -0.181729
vn 0.862857 -0.357406 -0.357406
vn 0.908496 -0.181729 -0.376311
vn 0.381501 -0.921027 -0.078521
vn 0.189136 -0.963564 -0.189136
vn 0.270597 -0.923880 -0.270597
vn 0.189136 0.963564 0.189136
vn 0.381501 0.921027 0.078521
vn 0.381501 0.921027 -0.078521
vn 0.189136 0.963564 -0.189136
vn 0.908496 0.376311 0.181729
vn 0.962445 0.191962 0.191962
vn 0.962445 0.191962 -0.191962
vn 0.908496 0.376311 -0.181729
vn 0.962445 0.191962 0.191962
vn 0.962445 -0.191962 0.191962
vn 0.962445 -0.191962 -0.191962
vn 0.962445 0.191962 -0.191962
vn 0.962445 -0.191962 0.191962
vn 0.908496 -0.376311 0.181729
vn 0.908496 -0.376311 -0.181729
vn 0.962445 -0.191962 -0.191962
vn 0.381501 -0.921027 0.078521
vn 0.189136 -0.963564 0.189136
vn 0.189136 -0.963564 -0.189136
vn 0.381501 -0.921027 -0.078521
vn 0.270597 0.923880 0.270597
vn 0.381501 0.921027 0.078521
vn 0.189136 0.963564 0.189136
vn 0.862857 0.357406 0.357406
vn 0.908496 0.181729 0.376311
vn 0.962445 0.191962 0.191962
vn 0.908496 0.376311 0.181729
vn 0.908496 0.181729 0.376311
vn 0.908496 -0.181729 0.376311
vn 0.962445 -0.191962 0.191962
vn 0.962445 0.191962 0.191962
vn 0.908496 -0.181729 0.376311
vn 0.862856 -0.357407 0.357406
vn 0.908496 -0.376311 0.181729
vn 0.962445 -0.191962 0.191962
vn 0.270597 -0.923880 0.270597
vn 0.189136 -0.963564 0.189136
vn 0.381501 -0.921027 0.078521
vn 0.078521 0.921027 0.381501
vn 0.270597 0.923880 0.270597
vn 0.189136 0.963564 0.189136
vn 0.181729 0.376311 0.908496
vn 0.153371 0.153371 0.976194
vn 0.376311 0.181729 0.908496
vn 0.357407 0.357407 0.862856
vn 0.153371 0.153371 0.976194
vn 0.153371 -0.153371 0.976194
vn 0.376311 -0.181729 0.908496
vn 0.376311 0.181729 0.908496
vn 0.153371 -0.153371 0.976194
vn 0.181729 -0.376311 0.908496
vn 0.357407 -0.357407 0.862856
vn 0.376311 -0.181729 0.908496
vn 0.078521 -0.921027 0.381501
vn 0.189136 -0.963564 0.189136
vn 0.270597 -0.923880 0.270597
vn -0.189136 -0.963564 0.189136
vn -0.189136 -0.963564 -0.189136
vn 0.189136 -0.963564 -0.189136
vn 0.189136 -0.963564 0.189136
vn 0.189136 0.963564 -0.189136
vn -0.189136 0.963564 -0.189136
vn -0.189136 0.963564 0.189136
vn 0.189136 0.963564 0.189136
vn -0.153371 0.153371 0.976194
vn 0.000000 0.000000 1.000000
vn 0.000000 0.000000 1.000000
vn 0.153371 0.153371 0.976194
vn -0.153371 -0.153371 0.976194
vn 0.000000 0.000000 1.000000
vn 0.000000 0.000000 1.000000
vn -0.153371 0.153371 0.976194
vn 0.153371 -0.153371 0.976194
vn 0.000000 0.000000 1.000000
vn 0.000000 0.000000 1.000000
vn -0.153371 -0.153371 0.976194
vn 0.153371 0.153371 0.976194
vn 0.000000 0.000000 1.000000
vn 0.000000 0.000000 1.000000
vn 0.153371 -0.153371 0.976194
vn 0.000000 -1.000000 0.000000
vn 0.000000 -1.000000 0.000000
vn 0.000000 -1.000000 0.000000
vn 0.000000 -1.000000 0.000000
vn 1.000000 0.000000 0.000000
vn 1.000000 0.000000 0.000000
vn 1.000000 0.000000 0.000000
vn 1.000000 0.000000 0.000000
vn -0.000000 1.000000 0.000000
vn -0.000000 1.000000 0.000000
vn -0.000000 1.000000 0.000000
vn -0.000000 1.000000 0.000000
vn -1.000000 -0.000000 0.000000
vn -1.000000 -0.000000 0.000000
vn -1.000000 -0.000000 0.000000
vn -1.000000 -0.000000 0.000000
vn 0.000000 0.000000 1.000000
vn 0.000000 0.000000 1.000000
vn 0.000000 0.000000 1.000000
vn 0.000000 0.000000 1.000000
s off
g polySurface3
usemtl aiStandardSurface3SG
f 6/1/1 8/2/2 7/3/3 5/4/4
f 2/5/5 6/1/6 5/4/7 1/11/8
f 4/7/9 8/2/10 6/1/11 2/12/12
f 3/8/13 7/3/14 8/2/15 4/10/16
f 1/6/17 5/4/18 7/3/19 3/9/20
f 10/13/21 14/14/22 13/15/23 9/16/24
f 14/14/25 26/17/26 25/18/27 13/15/28
f 38/19/29 50/20/30 49/21/31 37/22/32
f 50/20/33 62/23/34 61/24/35 49/21/36
f 15/25/37 14/26/38 10/27/39
f 15/25/40 27/28/41 26/29/42 14/26/43
f 27/28/44 39/30/45 38/31/46 26/29/47
f 39/30/48 51/32/49 50/33/50 38/31/51
f 51/32/52 62/34/53 50/33/54
f 16/35/55 15/25/56 10/27/57
f 16/35/58 28/36/59 27/28/60 15/25/61
f 28/36/62 40/37/63 39/30/64 27/28/65
f 40/37/66 52/38/67 51/32/68 39/30/69
f 52/38/70 62/34/71 51/32/72
f 11/39/73 17/40/74 16/35/75 10/27/76
f 17/40/77 29/41/78 28/36/79 16/35/80
f 29/41/81 41/42/82 40/37/83 28/36/84
f 41/42/85 53/43/86 52/38/87 40/37/88
f 53/43/89 63/44/90 62/34/91 52/38/92
f 18/45/93 17/40/94 11/39/95
f 18/45/96 30/46/97 29/41/98 17/40/99
f 30/46/100 42/47/101 41/42/102 29/41/103
f 42/47/104 54/48/105 53/43/106 41/42/107
f 54/48/108 63/44/109 53/43/110
f 19/49/111 18/45/112 11/39/113
f 19/49/114 31/50/115 30/46/116 18/45/117
f 31/50/118 43/51/119 42/47/120 30/46/121
f 43/51/122 55/52/123 54/48/124 42/47/125
f 55/52/126 63/44/127 54/48/128
f 12/53/129 20/54/130 19/49/131 11/55/132
f 20/54/133 32/56/134 31/50/135 19/49/136
f 32/56/137 44/57/138 43/51/139 31/50/140
f 44/57/141 56/58/142 55/52/143 43/51/144
f 56/58/145 64/59/146 63/60/147 55/52/148
f 21/61/149 20/54/150 12/62/151
f 21/61/152 33/63/153 32/56/154 20/54/155
f 33/63/156 45/64/157 44/57/158 32/56/159
f 45/64/160 57/65/161 56/58/162 44/57/163
f 57/65/164 64/66/165 56/58/166
f 22/67/167 21/61/168 12/62/169
f 22/67/170 34/68/171 33/63/172 21/61/173
f 34/68/174 46/69/175 45/64/176 33/63/177
f 46/69/178 58/70/179 57/65/180 45/64/181
f 58/70/182 64/66/183 57/65/184
f 9/71/185 23/72/186 22/67/187 12/62/188
f 23/72/189 35/73/190 34/68/191 22/67/192
f 35/73/193 47/74/194 46/69/195 34/68/196
f 47/74/197 59/75/198 58/70/199 46/69/200
f 59/75/201 61/76/202 64/66/203 58/70/204
f 24/77/205 23/72/206 9/71/207
f 24/77/208 36/78/209 35/73/210 23/72/211
f 36/78/212 48/79/213 47/74/214 35/73/215
f 48/79/216 60/80/217 59/75/218 47/74/219
f 60/80/220 61/76/221 59/75/222
f 13/81/223 24/77/224 9/71/225
f 13/81/226 25/82/227 36/78/228 24/77/229
f 25/82/230 37/83/231 48/79/232 36/78/233
f 37/83/234 49/84/235 60/80/236 48/79/237
f 49/84/238 61/76/239 60/80/240
f 62/23/241 63/60/242 64/59/243 61/24/244
f 12/53/245 11/55/246 10/13/247 9/16/248
f 26/17/249 66/85/250 65/86/251 25/18/252
f 38/31/253 68/87/254 66/88/255 26/29/256
f 37/22/257 67/89/258 68/90/259 38/19/260
f 25/82/261 65/91/262 67/92/263 37/83/264
f 66/85/265 70/93/266 69/94/267 65/86/268
f 68/87/269 72/95/270 70/96/271 66/88/272
f 67/89/273 71/97/274 72/98/275 68/90/276
f 65/91/277 69/99/278 71/100/279 67/92/280
f 70/101/281 72/102/282 71/103/283 69/104/284
