# This file uses centimeters as units for non-parametric coordinates.

mtllib 3333.mtl
g default
v 25.925907 12.750000 0.800000
v 16.325907 12.750000 0.800000
v 16.325907 12.750000 -0.800000
v 25.925907 12.750000 -0.800000
v 25.925907 12.691422 0.941421
v 16.325907 12.691422 0.941421
v 16.225906 12.691422 0.900000
v 16.184486 12.691422 0.800000
v 16.184486 12.691422 -0.800000
v 16.225906 12.691422 -0.900000
v 16.325907 12.691422 -0.941421
v 25.925907 12.691422 -0.941421
v 26.025908 12.691422 -0.900000
v 26.067329 12.691422 -0.800000
v 26.067329 12.691422 0.800000
v 26.025908 12.691422 0.900000
v 25.925907 12.550000 1.000000
v 16.325907 12.550000 1.000000
v 16.184486 12.550000 0.941421
v 16.125908 12.550000 0.800000
v 16.125908 12.550000 -0.800000
v 16.184486 12.550000 -0.941421
v 16.325907 12.550000 -1.000000
v 25.925907 12.550000 -1.000000
v 26.067329 12.550000 -0.941421
v 26.125908 12.550000 -0.800000
v 26.125908 12.550000 0.800000
v 26.067329 12.550000 0.941421
v 25.925907 -12.550000 1.000000
v 16.325907 -12.550000 1.000000
v 16.184486 -12.550000 0.941421
v 16.125908 -12.550000 0.800000
v 16.125908 -12.550000 -0.800000
v 16.184486 -12.550000 -0.941421
v 16.325907 -12.550000 -1.000000
v 25.925907 -12.550000 -1.000000
v 26.067329 -12.550000 -0.941421
v 26.125908 -12.550000 -0.800000
v 26.125908 -12.550000 0.800000
v 26.067329 -12.550000 0.941421
v 25.925907 -12.691422 0.941421
v 16.325907 -12.691422 0.941421
v 16.225906 -12.691422 0.900000
v 16.184486 -12.691422 0.800000
v 16.184486 -12.691422 -0.800000
v 16.225906 -12.691422 -0.900000
v 16.325907 -12.691422 -0.941421
v 25.925907 -12.691422 -0.941421
v 26.025908 -12.691422 -0.900000
v 26.067329 -12.691422 -0.800000
v 26.067329 -12.691422 0.800000
v 26.025908 -12.691422 0.900000
v 25.925907 -12.750000 0.800000
v 16.325907 -12.750000 0.800000
v 16.325907 -12.750000 -0.800000
v 25.925907 -12.750000 -0.800000
v 25.258759 11.882852 0.561007
v 16.993055 11.882852 0.561007
v 25.258759 -11.882852 0.561007
v 16.993055 -11.882852 0.561007
v 25.258759 11.882852 0.339961
v 16.993055 11.882852 0.339961
v 25.258759 -11.882852 0.339961
v 16.993055 -11.882852 0.339961
v 25.258759 11.882852 0.174679
v 16.993055 11.882852 0.174679
v 25.258759 -11.882852 0.174679
v 16.993055 -11.882852 0.174679
vt 0.109127 0.044926
vt 0.053107 0.088201
vt 0.435639 0.086300
vt 0.430289 0.083678
vt 0.049858 0.093128
vt 0.379861 0.035030
vt 0.113802 0.856195
vt 0.058024 0.804925
vt 0.440555 0.803024
vt 0.443805 0.798097
vt 0.063374 0.807547
vt 0.435026 0.805764
vt 0.055756 0.089628
vt 0.054076 0.093787
vt 0.058820 0.799445
vt 0.060482 0.803551
vt 0.058752 0.089801
vt 0.058332 0.094061
vt 0.063066 0.799116
vt 0.063479 0.803350
vt 0.109075 0.089587
vt 0.105548 0.093545
vt 0.102981 0.097779
vt 0.107168 0.794958
vt 0.109765 0.799093
vt 0.113355 0.803046
vt 0.107990 0.094080
vt 0.107129 0.098022
vt 0.111311 0.794664
vt 0.112140 0.798574
vt 0.110568 0.093680
vt 0.111274 0.097910
vt 0.115459 0.794726
vt 0.114808 0.798965
vt 0.380308 0.088179
vt 0.378855 0.092260
vt 0.378204 0.096499
vt 0.382388 0.793315
vt 0.383095 0.797545
vt 0.384588 0.801638
vt 0.381523 0.092651
vt 0.382351 0.096561
vt 0.386534 0.793203
vt 0.385673 0.797145
vt 0.383898 0.092132
vt 0.386495 0.096267
vt 0.390682 0.793446
vt 0.388115 0.797680
vt 0.430184 0.087875
vt 0.430597 0.092109
vt 0.435331 0.797164
vt 0.434911 0.801424
vt 0.433180 0.087674
vt 0.434843 0.091780
vt 0.439586 0.797438
vt 0.437906 0.801597
vt 0.027703 0.112140
vt 0.360925 0.012849
vt 0.132737 0.878376
vt 0.465960 0.779085
vt 0.979157 0.267853
vt 0.748977 0.265994
vt 0.973862 0.929658
vt 0.743681 0.927799
vt 0.127848 0.003227
vt 0.021452 0.781722
vt 0.365815 0.887998
vt 0.472210 0.109503
vt 0.500678 0.031054
vt 0.730857 0.032913
vt 0.495333 0.692862
vt 0.725513 0.694721
vt 0.360879 0.002072
vt 0.461434 0.109600
vt 0.127884 0.014005
vt 0.016925 0.112241
vt 0.439031 0.090996
vt 0.109118 0.036383
vt 0.379888 0.039299
vt 0.109123 0.040654
vt 0.365779 0.877220
vt 0.476737 0.778984
vt 0.032229 0.781625
vt 0.132784 0.889153
vt 0.384545 0.854842
vt 0.054632 0.800229
vt 0.384536 0.846299
vt 0.379917 0.043568
vt 0.113746 0.847657
vt 0.058637 0.085461
vt 0.384540 0.850571
vt 0.113775 0.851926
vn -0.189137 0.963564 0.189137
vn -0.078521 0.921027 0.381501
vn 0.078521 0.921027 0.381501
vn 0.189137 0.963564 0.189137
vn -0.181730 0.376311 0.908495
vn -0.254706 0.254706 0.932872
vn 0.254706 0.254706 0.932872
vn 0.181730 0.376311 0.908495
vn -0.254706 -0.254706 0.932872
vn -0.181730 -0.376311 0.908495
vn 0.181730 -0.376311 0.908495
vn 0.254706 -0.254706 0.932872
vn -0.078521 -0.921027 0.381501
vn -0.189137 -0.963564 0.189137
vn 0.189137 -0.963564 0.189137
vn 0.078521 -0.921027 0.381501
vn -0.270598 0.923880 0.270598
vn -0.078521 0.921027 0.381501
vn -0.189137 0.963564 0.189137
vn -0.357407 0.357407 0.862856
vn -0.376311 0.181730 0.908495
vn -0.254706 0.254706 0.932872
vn -0.181730 0.376311 0.908495
vn -0.376311 0.181730 0.908495
vn -0.376311 -0.181730 0.908495
vn -0.254706 -0.254706 0.932872
vn -0.254706 0.254706 0.932872
vn -0.376311 -0.181730 0.908495
vn -0.357407 -0.357407 0.862856
vn -0.181730 -0.376311 0.908495
vn -0.254706 -0.254706 0.932872
vn -0.270598 -0.923880 0.270598
vn -0.189137 -0.963564 0.189137
vn -0.078521 -0.921027 0.381501
vn -0.381501 0.921027 0.078521
vn -0.270598 0.923880 0.270598
vn -0.189137 0.963564 0.189137
vn -0.908496 0.376311 0.181729
vn -0.962446 0.191962 0.191962
vn -0.908496 0.181729 0.376311
vn -0.862856 0.357406 0.357407
vn -0.962446 0.191962 0.191962
vn -0.962446 -0.191962 0.191962
vn -0.908496 -0.181729 0.376311
vn -0.908496 0.181729 0.376311
vn -0.962446 -0.191962 0.191962
vn -0.908496 -0.376311 0.181729
vn -0.862856 -0.357407 0.357407
vn -0.908496 -0.181729 0.376311
vn -0.381501 -0.921027 0.078521
vn -0.189137 -0.963564 0.189137
vn -0.270598 -0.923880 0.270598
vn -0.189137 0.963564 -0.189137
vn -0.381501 0.921027 -0.078521
vn -0.381501 0.921027 0.078521
vn -0.189137 0.963564 0.189137
vn -0.908496 0.376311 -0.181729
vn -0.962446 0.191962 -0.191962
vn -0.962446 0.191962 0.191962
vn -0.908496 0.376311 0.181729
vn -0.962446 0.191962 -0.191962
vn -0.962446 -0.191962 -0.191962
vn -0.962446 -0.191962 0.191962
vn -0.962446 0.191962 0.191962
vn -0.962446 -0.191962 -0.191962
vn -0.908496 -0.376311 -0.181729
vn -0.908496 -0.376311 0.181729
vn -0.962446 -0.191962 0.191962
vn -0.381501 -0.921027 -0.078521
vn -0.189137 -0.963564 -0.189137
vn -0.189137 -0.963564 0.189137
vn -0.381501 -0.921027 0.078521
vn -0.270598 0.923880 -0.270598
vn -0.381501 0.921027 -0.078521
vn -0.189137 0.963564 -0.189137
vn -0.862856 0.357407 -0.357407
vn -0.908496 0.181729 -0.376311
vn -0.962446 0.191962 -0.191962
vn -0.908496 0.376311 -0.181729
vn -0.908496 0.181729 -0.376311
vn -0.908496 -0.181729 -0.376311
vn -0.962446 -0.191962 -0.191962
vn -0.962446 0.191962 -0.191962
vn -0.908496 -0.181729 -0.376311
vn -0.862856 -0.357406 -0.357407
vn -0.908496 -0.376311 -0.181729
vn -0.962446 -0.191962 -0.191962
vn -0.270598 -0.923880 -0.270598
vn -0.189137 -0.963564 -0.189137
vn -0.381501 -0.921027 -0.078521
vn -0.078521 0.921027 -0.381501
vn -0.270598 0.923880 -0.270598
vn -0.189137 0.963564 -0.189137
vn -0.181730 0.376311 -0.908495
vn -0.191962 0.191962 -0.962445
vn -0.376311 0.181730 -0.908495
vn -0.357407 0.357407 -0.862856
vn -0.191962 0.191962 -0.962445
vn -0.191962 -0.191962 -0.962445
vn -0.376311 -0.181730 -0.908495
vn -0.376311 0.181730 -0.908495
vn -0.191962 -0.191962 -0.962445
vn -0.181730 -0.376311 -0.908495
vn -0.357407 -0.357407 -0.862856
vn -0.376311 -0.181730 -0.908495
vn -0.078521 -0.921027 -0.381501
vn -0.189137 -0.963564 -0.189137
vn -0.270598 -0.923880 -0.270598
vn 0.189137 0.963564 -0.189137
vn 0.078521 0.921027 -0.381501
vn -0.078521 0.921027 -0.381501
vn -0.189137 0.963564 -0.189137
vn 0.181730 0.376311 -0.908495
vn 0.191962 0.191962 -0.962445
vn -0.191962 0.191962 -0.962445
vn -0.181730 0.376311 -0.908495
vn 0.191962 0.191962 -0.962445
vn 0.191962 -0.191962 -0.962445
vn -0.191962 -0.191962 -0.962445
vn -0.191962 0.191962 -0.962445
vn 0.191962 -0.191962 -0.962445
vn 0.181730 -0.376311 -0.908495
vn -0.181730 -0.376311 -0.908495
vn -0.191962 -0.191962 -0.962445
vn 0.078521 -0.921027 -0.381501
vn 0.189137 -0.963564 -0.189137
vn -0.189137 -0.963564 -0.189137
vn -0.078521 -0.921027 -0.381501
vn 0.270598 0.923880 -0.270598
vn 0.078521 0.921027 -0.381501
vn 0.189137 0.963564 -0.189137
vn 0.357407 0.357407 -0.862856
vn 0.376311 0.181730 -0.908495
vn 0.191962 0.191962 -0.962445
vn 0.181730 0.376311 -0.908495
vn 0.376311 0.181730 -0.908495
vn 0.376311 -0.181730 -0.908495
vn 0.191962 -0.191962 -0.962445
vn 0.191962 0.191962 -0.962445
vn 0.376311 -0.181730 -0.908495
vn 0.357407 -0.357407 -0.862856
vn 0.181730 -0.376311 -0.908495
vn 0.191962 -0.191962 -0.962445
vn 0.270598 -0.923880 -0.270598
vn 0.189137 -0.963564 -0.189137
vn 0.078521 -0.921027 -0.381501
vn 0.381501 0.921027 -0.078521
vn 0.270598 0.923880 -0.270598
vn 0.189137 0.963564 -0.189137
vn 0.908496 0.376311 -0.181729
vn 0.962446 0.191962 -0.191962
vn 0.908496 0.181729 -0.376311
vn 0.862856 0.357406 -0.357407
vn 0.962446 0.191962 -0.191962
vn 0.962446 -0.191962 -0.191962
vn 0.908496 -0.181729 -0.376311
vn 0.908496 0.181729 -0.376311
vn 0.962446 -0.191962 -0.191962
vn 0.908496 -0.376311 -0.181729
vn 0.862856 -0.357407 -0.357407
vn 0.908496 -0.181729 -0.376311
vn 0.381501 -0.921027 -0.078521
vn 0.189137 -0.963564 -0.189137
vn 0.270598 -0.923880 -0.270598
vn 0.189137 0.963564 0.189137
vn 0.381501 0.921027 0.078521
vn 0.381501 0.921027 -0.078521
vn 0.189137 0.963564 -0.189137
vn 0.908496 0.376311 0.181729
vn 0.962446 0.191962 0.191962
vn 0.962446 0.191962 -0.191962
vn 0.908496 0.376311 -0.181729
vn 0.962446 0.191962 0.191962
vn 0.962446 -0.191962 0.191962
vn 0.962446 -0.191962 -0.191962
vn 0.962446 0.191962 -0.191962
vn 0.962446 -0.191962 0.191962
vn 0.908496 -0.376311 0.181729
vn 0.908496 -0.376311 -0.181729
vn 0.962446 -0.191962 -0.191962
vn 0.381501 -0.921027 0.078521
vn 0.189137 -0.963564 0.189137
vn 0.189137 -0.963564 -0.189137
vn 0.381501 -0.921027 -0.078521
vn 0.270598 0.923880 0.270598
vn 0.381501 0.921027 0.078521
vn 0.189137 0.963564 0.189137
vn 0.862856 0.357407 0.357407
vn 0.908496 0.181729 0.376311
vn 0.962446 0.191962 0.191962
vn 0.908496 0.376311 0.181729
vn 0.908496 0.181729 0.376311
vn 0.908496 -0.181729 0.376311
vn 0.962446 -0.191962 0.191962
vn 0.962446 0.191962 0.191962
vn 0.908496 -0.181729 0.376311
vn 0.862856 -0.357406 0.357407
vn 0.908496 -0.376311 0.181729
vn 0.962446 -0.191962 0.191962
vn 0.270598 -0.923880 0.270598
vn 0.189137 -0.963564 0.189137
vn 0.381501 -0.921027 0.078521
vn 0.078521 0.921027 0.381501
vn 0.270598 0.923880 0.270598
vn 0.189137 0.963564 0.189137
vn 0.181730 0.376311 0.908495
vn 0.254706 0.254706 0.932872
vn 0.376311 0.181730 0.908495
vn 0.357407 0.357407 0.862856
vn 0.254706 0.254706 0.932872
vn 0.254706 -0.254706 0.932872
vn 0.376311 -0.181730 0.908495
vn 0.376311 0.181730 0.908495
vn 0.254706 -0.254706 0.932872
vn 0.181730 -0.376311 0.908495
vn 0.357407 -0.357407 0.862856
vn 0.376311 -0.181730 0.908495
vn 0.078521 -0.921027 0.381501
vn 0.189137 -0.963564 0.189137
vn 0.270598 -0.923880 0.270598
vn -0.189137 -0.963564 0.189137
vn -0.189137 -0.963564 -0.189137
vn 0.189137 -0.963564 -0.189137
vn 0.189137 -0.963564 0.189137
vn 0.189137 0.963564 -0.189137
vn -0.189137 0.963564 -0.189137
vn -0.189137 0.963564 0.189137
vn 0.189137 0.963564 0.189137
vn 0.000000 -0.549686 0.835371
vn 0.000000 -0.549686 0.835371
vn 0.000000 -0.549686 0.835371
vn 0.000000 -0.549686 0.835371
vn 0.549686 0.000000 0.835371
vn 0.549686 0.000000 0.835371
vn 0.549686 0.000000 0.835371
vn 0.549686 0.000000 0.835371
vn -0.000000 0.549686 0.835371
vn -0.000000 0.549686 0.835371
vn -0.000000 0.549686 0.835371
vn -0.000000 0.549686 0.835371
vn -0.549686 -0.000000 0.835371
vn -0.549686 -0.000000 0.835371
vn -0.549686 -0.000000 0.835371
vn -0.549686 -0.000000 0.835371
vn 0.000000 0.000000 1.000000
vn 0.000000 0.000000 1.000000
vn 0.000000 0.000000 1.000000
vn 0.000000 0.000000 1.000000
vn 0.000000 0.000000 1.000000
vn 0.000000 0.000000 1.000000
vn 0.000000 0.000000 1.000000
vn 0.000000 0.000000 1.000000
vn 0.000000 -1.000000 0.000000
vn 0.000000 -1.000000 0.000000
vn 0.000000 -1.000000 0.000000
vn 0.000000 -1.000000 0.000000
vn 1.000000 0.000000 0.000000
vn 1.000000 0.000000 0.000000
vn 1.000000 0.000000 0.000000
vn 1.000000 0.000000 0.000000
vn -0.000000 1.000000 0.000000
vn -0.000000 1.000000 0.000000
vn -0.000000 1.000000 0.000000
vn -0.000000 1.000000 0.000000
vn -1.000000 -0.000000 0.000000
vn -1.000000 -0.000000 0.000000
vn -1.000000 -0.000000 0.000000
vn -1.000000 -0.000000 0.000000
s off
g _Mesh
usemtl aiStandardSurface4SG
f 2/1/1 6/80/2 5/79/3 1/88/4
f 6/80/5 18/78/6 17/6/7 5/79/8
f 30/7/9 42/92/10 41/91/11 29/85/12
f 42/92/13 54/89/14 53/87/15 41/91/16
f 7/13/17 6/2/18 2/90/19
f 7/13/20 19/14/21 18/5/22 6/2/23
f 19/14/24 31/15/25 30/86/26 18/5/27
f 31/15/28 43/16/29 42/8/30 30/86/31
f 43/16/32 54/11/33 42/8/34
f 8/17/35 7/13/36 2/90/37
f 8/17/38 20/18/39 19/14/40 7/13/41
f 20/18/42 32/19/43 31/15/44 19/14/45
f 32/19/46 44/20/47 43/16/48 31/15/49
f 44/20/50 54/11/51 43/16/52
f 3/21/53 9/22/54 8/17/55 2/90/56
f 9/22/57 21/23/58 20/18/59 8/17/60
f 21/23/61 33/24/62 32/19/63 20/18/64
f 33/24/65 45/25/66 44/20/67 32/19/68
f 45/25/69 55/26/70 54/11/71 44/20/72
f 10/27/73 9/22/74 3/21/75
f 10/27/76 22/28/77 21/23/78 9/22/79
f 22/28/80 34/29/81 33/24/82 21/23/83
f 34/29/84 46/30/85 45/25/86 33/24/87
f 46/30/88 55/26/89 45/25/90
f 11/31/91 10/27/92 3/21/93
f 11/31/94 23/32/95 22/28/96 10/27/97
f 23/32/98 35/33/99 34/29/100 22/28/101
f 35/33/102 47/34/103 46/30/104 34/29/105
f 47/34/106 55/26/107 46/30/108
f 4/35/109 12/36/110 11/31/111 3/21/112
f 12/36/113 24/37/114 23/32/115 11/31/116
f 24/37/117 36/38/118 35/33/119 23/32/120
f 36/38/121 48/39/122 47/34/123 35/33/124
f 48/39/125 56/40/126 55/26/127 47/34/128
f 13/41/129 12/36/130 4/35/131
f 13/41/132 25/42/133 24/37/134 12/36/135
f 25/42/136 37/43/137 36/38/138 24/37/139
f 37/43/140 49/44/141 48/39/142 36/38/143
f 49/44/144 56/40/145 48/39/146
f 14/45/147 13/41/148 4/35/149
f 14/45/150 26/46/151 25/42/152 13/41/153
f 26/46/154 38/47/155 37/43/156 25/42/157
f 38/47/158 50/48/159 49/44/160 37/43/161
f 50/48/162 56/40/163 49/44/164
f 1/4/165 15/49/166 14/45/167 4/35/168
f 15/49/169 27/50/170 26/46/171 14/45/172
f 27/50/173 39/51/174 38/47/175 26/46/176
f 39/51/177 51/52/178 50/48/179 38/47/180
f 51/52/181 53/12/182 56/40/183 50/48/184
f 16/53/185 15/49/186 1/4/187
f 16/53/188 28/54/189 27/50/190 15/49/191
f 28/54/192 40/55/193 39/51/194 27/50/195
f 40/55/196 52/56/197 51/52/198 39/51/199
f 52/56/200 53/12/201 51/52/202
f 5/3/203 16/53/204 1/4/205
f 5/3/206 17/77/207 28/54/208 16/53/209
f 17/77/210 29/10/211 40/55/212 28/54/213
f 29/10/214 41/9/215 52/56/216 40/55/217
f 41/9/218 53/12/219 52/56/220
f 54/89/221 55/26/222 56/40/223 53/87/224
f 4/35/225 3/21/226 2/1/227 1/88/228
f 18/78/229 58/75/230 57/58/231 17/6/232
f 30/86/233 60/83/234 58/57/235 18/5/236
f 29/85/237 59/81/238 60/59/239 30/7/240
f 17/77/241 57/74/242 59/60/243 29/10/244
f 62/61/245 64/63/246 63/64/247 61/62/248
f 66/70/249 68/72/250 67/71/251 65/69/252
f 58/75/253 66/65/254 65/73/255 57/58/256
f 60/83/257 68/66/258 66/76/259 58/57/260
f 59/81/261 67/67/262 68/84/263 60/59/264
f 57/74/265 65/68/266 67/82/267 59/60/268
