# This file uses centimeters as units for non-parametric coordinates.

mtllib 4444.mtl
g default
v -20.232323 -13.725000 1.200000
v 11.067677 -13.725000 1.200000
v 11.067677 -13.725000 -1.200000
v -20.232323 -13.725000 -1.200000
v -20.232323 -13.637132 1.412132
v 11.067677 -13.637132 1.412132
v 11.217678 -13.637132 1.350000
v 11.279810 -13.637132 1.200000
v 11.279810 -13.637132 -1.200000
v 11.217678 -13.637132 -1.350000
v 11.067677 -13.637132 -1.412132
v -20.232323 -13.637132 -1.412132
v -20.382322 -13.637132 -1.350000
v -20.444454 -13.637132 -1.200000
v -20.444454 -13.637132 1.200000
v -20.382322 -13.637132 1.350000
v -20.232323 -13.425000 1.500000
v 11.067677 -13.425000 1.500000
v 11.279810 -13.425000 1.412132
v 11.367678 -13.425000 1.200000
v 11.367678 -13.425000 -1.200000
v 11.279810 -13.425000 -1.412132
v 11.067677 -13.425000 -1.500000
v -20.232323 -13.425000 -1.500000
v -20.444454 -13.425000 -1.412132
v -20.532322 -13.425000 -1.200000
v -20.532322 -13.425000 1.200000
v -20.444454 -13.425000 1.412132
v -20.232323 13.425000 1.500000
v 11.067677 13.425000 1.500000
v 11.279810 13.425000 1.412132
v 11.367678 13.425000 1.200000
v 11.367678 13.425000 -1.200000
v 11.279810 13.425000 -1.412132
v 11.067677 13.425000 -1.500000
v -20.232323 13.425000 -1.500000
v -20.444454 13.425000 -1.412132
v -20.532322 13.425000 -1.200000
v -20.532322 13.425000 1.200000
v -20.444454 13.425000 1.412132
v -20.232323 13.637132 1.412132
v 11.067677 13.637132 1.412132
v 11.217678 13.637132 1.350000
v 11.279810 13.637132 1.200000
v 11.279810 13.637132 -1.200000
v 11.217678 13.637132 -1.350000
v 11.067677 13.637132 -1.412132
v -20.232323 13.637132 -1.412132
v -20.382322 13.637132 -1.350000
v -20.444454 13.637132 -1.200000
v -20.444454 13.637132 1.200000
v -20.382322 13.637132 1.350000
v -20.232323 13.725000 1.200000
v 11.067677 13.725000 1.200000
v 11.067677 13.725000 -1.200000
v -20.232323 13.725000 -1.200000
v -19.432323 -12.625000 0.566234
v 10.267677 -12.625000 0.566234
v -19.432323 12.625000 0.566234
v 10.267677 12.625000 0.566234
v -19.432323 -12.625000 0.218923
v 10.267677 -12.625000 0.218923
v -19.432323 12.625000 0.218923
v 10.267677 12.625000 0.218923
v -19.432323 -12.625000 0.101781
v 10.267677 -12.625000 0.101781
v -19.432323 12.625000 0.101781
v 10.267677 12.625000 0.101781
vt 0.071068 0.546870
vt 0.102983 0.588989
vt 0.105177 0.068250
vt 0.103170 0.072227
vt 0.106643 0.591461
vt 0.066248 0.109620
vt 0.528870 0.548679
vt 0.489940 0.590049
vt 0.492134 0.069311
vt 0.488474 0.066839
vt 0.491948 0.586072
vt 0.494136 0.073468
vt 0.104074 0.587021
vt 0.107172 0.588313
vt 0.485845 0.589409
vt 0.488933 0.588201
vt 0.104228 0.584784
vt 0.107411 0.585135
vt 0.485638 0.586233
vt 0.488809 0.585960
vt 0.104452 0.547001
vt 0.107388 0.549735
vt 0.110537 0.551742
vt 0.482956 0.553296
vt 0.486086 0.551321
vt 0.489089 0.548591
vt 0.107806 0.547942
vt 0.110751 0.548683
vt 0.482775 0.550234
vt 0.485717 0.549568
vt 0.107525 0.546024
vt 0.110698 0.545627
vt 0.482859 0.547174
vt 0.486033 0.547583
vt 0.106028 0.109709
vt 0.109084 0.110716
vt 0.112258 0.111125
vt 0.484419 0.112672
vt 0.487593 0.112275
vt 0.490665 0.111299
vt 0.109400 0.108732
vt 0.112342 0.108066
vt 0.484366 0.109616
vt 0.487311 0.110358
vt 0.109031 0.106979
vt 0.112161 0.105004
vt 0.484580 0.106558
vt 0.487729 0.108564
vt 0.106308 0.072340
vt 0.109480 0.072067
vt 0.487706 0.073164
vt 0.490889 0.073516
vt 0.106184 0.070098
vt 0.109273 0.068891
vt 0.487945 0.069986
vt 0.491043 0.071278
vt 0.117940 0.608600
vt 0.049101 0.120748
vt 0.546016 0.537551
vt 0.477178 0.049700
vt 0.907683 0.856820
vt 0.905963 0.481370
vt 0.588481 0.858276
vt 0.586776 0.482818
vt 0.041154 0.535596
vt 0.475000 0.616079
vt 0.553963 0.122703
vt 0.120117 0.042220
vt 0.547502 0.122683
vt 0.475017 0.609618
vt 0.120100 0.048681
vt 0.047615 0.535616
vt 0.530437 0.111451
vt 0.486394 0.592546
vt 0.108723 0.065754
vt 0.064680 0.546848
vt 0.524049 0.111429
vt 0.072637 0.109636
vt 0.522481 0.548663
vt 0.100981 0.584831
vt 0.527243 0.111440
vt 0.525675 0.548671
vt 0.069442 0.109628
vt 0.067874 0.546859
vt 0.910821 0.054247
vt 0.042640 0.120729
vt 0.915674 0.429671
vt 0.117926 0.615061
vt 0.591647 0.058373
vt 0.477191 0.043238
vt 0.596501 0.433797
vt 0.552477 0.537571
vn 0.189138 -0.963563 0.189138
vn 0.078522 -0.921026 0.381505
vn -0.078522 -0.921026 0.381505
vn -0.189138 -0.963563 0.189138
vn 0.181729 -0.376312 0.908495
vn 0.254705 -0.254706 0.932872
vn -0.254705 -0.254706 0.932872
vn -0.181729 -0.376312 0.908495
vn 0.254705 0.254706 0.932872
vn 0.181729 0.376312 0.908495
vn -0.181729 0.376312 0.908495
vn -0.254705 0.254706 0.932872
vn 0.078522 0.921026 0.381505
vn 0.189138 0.963563 0.189138
vn -0.189138 0.963563 0.189138
vn -0.078522 0.921026 0.381505
vn 0.270599 -0.923879 0.270600
vn 0.078522 -0.921026 0.381505
vn 0.189138 -0.963563 0.189138
vn 0.357406 -0.357407 0.862856
vn 0.376310 -0.181730 0.908496
vn 0.254705 -0.254706 0.932872
vn 0.181729 -0.376312 0.908495
vn 0.376310 -0.181730 0.908496
vn 0.376310 0.181730 0.908496
vn 0.254705 0.254706 0.932872
vn 0.254705 -0.254706 0.932872
vn 0.376310 0.181730 0.908496
vn 0.357406 0.357407 0.862856
vn 0.181729 0.376312 0.908495
vn 0.254705 0.254706 0.932872
vn 0.270599 0.923879 0.270600
vn 0.189138 0.963563 0.189138
vn 0.078522 0.921026 0.381505
vn 0.381504 -0.921026 0.078522
vn 0.270599 -0.923879 0.270600
vn 0.189138 -0.963563 0.189138
vn 0.908496 -0.376311 0.181729
vn 0.962446 -0.191962 0.191961
vn 0.908496 -0.181729 0.376310
vn 0.862857 -0.357407 0.357406
vn 0.962446 -0.191962 0.191961
vn 0.962446 0.191962 0.191961
vn 0.908496 0.181729 0.376310
vn 0.908496 -0.181729 0.376310
vn 0.962446 0.191962 0.191961
vn 0.908496 0.376311 0.181729
vn 0.862857 0.357407 0.357406
vn 0.908496 0.181729 0.376310
vn 0.381504 0.921026 0.078522
vn 0.189138 0.963563 0.189138
vn 0.270599 0.923879 0.270600
vn 0.189138 -0.963563 -0.189138
vn 0.381504 -0.921026 -0.078522
vn 0.381504 -0.921026 0.078522
vn 0.189138 -0.963563 0.189138
vn 0.908496 -0.376311 -0.181729
vn 0.962446 -0.191962 -0.191961
vn 0.962446 -0.191962 0.191961
vn 0.908496 -0.376311 0.181729
vn 0.962446 -0.191962 -0.191961
vn 0.962446 0.191962 -0.191961
vn 0.962446 0.191962 0.191961
vn 0.962446 -0.191962 0.191961
vn 0.962446 0.191962 -0.191961
vn 0.908496 0.376311 -0.181729
vn 0.908496 0.376311 0.181729
vn 0.962446 0.191962 0.191961
vn 0.381504 0.921026 -0.078522
vn 0.189138 0.963563 -0.189138
vn 0.189138 0.963563 0.189138
vn 0.381504 0.921026 0.078522
vn 0.270599 -0.923879 -0.270600
vn 0.381504 -0.921026 -0.078522
vn 0.189138 -0.963563 -0.189138
vn 0.862857 -0.357407 -0.357406
vn 0.908496 -0.181729 -0.376310
vn 0.962446 -0.191962 -0.191961
vn 0.908496 -0.376311 -0.181729
vn 0.908496 -0.181729 -0.376310
vn 0.908496 0.181729 -0.376310
vn 0.962446 0.191962 -0.191961
vn 0.962446 -0.191962 -0.191961
vn 0.908496 0.181729 -0.376310
vn 0.862856 0.357407 -0.357406
vn 0.908496 0.376311 -0.181729
vn 0.962446 0.191962 -0.191961
vn 0.270599 0.923879 -0.270600
vn 0.189138 0.963563 -0.189138
vn 0.381504 0.921026 -0.078522
vn 0.078522 -0.921026 -0.381505
vn 0.270599 -0.923879 -0.270600
vn 0.189138 -0.963563 -0.189138
vn 0.181729 -0.376312 -0.908495
vn 0.191961 -0.191962 -0.962445
vn 0.376310 -0.181730 -0.908496
vn 0.357406 -0.357407 -0.862856
vn 0.191961 -0.191962 -0.962445
vn 0.191961 0.191962 -0.962445
vn 0.376310 0.181730 -0.908496
vn 0.376310 -0.181730 -0.908496
vn 0.191961 0.191962 -0.962445
vn 0.181729 0.376312 -0.908495
vn 0.357406 0.357407 -0.862856
vn 0.376310 0.181730 -0.908496
vn 0.078522 0.921026 -0.381505
vn 0.189138 0.963563 -0.189138
vn 0.270599 0.923879 -0.270600
vn -0.189138 -0.963563 -0.189138
vn -0.078522 -0.921026 -0.381505
vn 0.078522 -0.921026 -0.381505
vn 0.189138 -0.963563 -0.189138
vn -0.181729 -0.376312 -0.908495
vn -0.191961 -0.191962 -0.962445
vn 0.191961 -0.191962 -0.962445
vn 0.181729 -0.376312 -0.908495
vn -0.191961 -0.191962 -0.962445
vn -0.191961 0.191962 -0.962445
vn 0.191961 0.191962 -0.962445
vn 0.191961 -0.191962 -0.962445
vn -0.191961 0.191962 -0.962445
vn -0.181729 0.376312 -0.908495
vn 0.181729 0.376312 -0.908495
vn 0.191961 0.191962 -0.962445
vn -0.078522 0.921026 -0.381505
vn -0.189138 0.963563 -0.189138
vn 0.189138 0.963563 -0.189138
vn 0.078522 0.921026 -0.381505
vn -0.270599 -0.923879 -0.270600
vn -0.078522 -0.921026 -0.381505
vn -0.189138 -0.963563 -0.189138
vn -0.357406 -0.357407 -0.862856
vn -0.376310 -0.181730 -0.908496
vn -0.191961 -0.191962 -0.962445
vn -0.181729 -0.376312 -0.908495
vn -0.376310 -0.181730 -0.908496
vn -0.376310 0.181730 -0.908496
vn -0.191961 0.191962 -0.962445
vn -0.191961 -0.191962 -0.962445
vn -0.376310 0.181730 -0.908496
vn -0.357406 0.357407 -0.862856
vn -0.181729 0.376312 -0.908495
vn -0.191961 0.191962 -0.962445
vn -0.270599 0.923879 -0.270600
vn -0.189138 0.963563 -0.189138
vn -0.078522 0.921026 -0.381505
vn -0.381504 -0.921026 -0.078522
vn -0.270599 -0.923879 -0.270600
vn -0.189138 -0.963563 -0.189138
vn -0.908496 -0.376311 -0.181729
vn -0.962446 -0.191962 -0.191961
vn -0.908496 -0.181729 -0.376310
vn -0.862857 -0.357407 -0.357406
vn -0.962446 -0.191962 -0.191961
vn -0.962446 0.191962 -0.191961
vn -0.908496 0.181729 -0.376310
vn -0.908496 -0.181729 -0.376310
vn -0.962446 0.191962 -0.191961
vn -0.908496 0.376311 -0.181729
vn -0.862857 0.357407 -0.357406
vn -0.908496 0.181729 -0.376310
vn -0.381504 0.921026 -0.078522
vn -0.189138 0.963563 -0.189138
vn -0.270599 0.923879 -0.270600
vn -0.189138 -0.963563 0.189138
vn -0.381504 -0.921026 0.078522
vn -0.381504 -0.921026 -0.078522
vn -0.189138 -0.963563 -0.189138
vn -0.908496 -0.376311 0.181729
vn -0.962446 -0.191962 0.191961
vn -0.962446 -0.191962 -0.191961
vn -0.908496 -0.376311 -0.181729
vn -0.962446 -0.191962 0.191961
vn -0.962446 0.191962 0.191961
vn -0.962446 0.191962 -0.191961
vn -0.962446 -0.191962 -0.191961
vn -0.962446 0.191962 0.191961
vn -0.908496 0.376311 0.181729
vn -0.908496 0.376311 -0.181729
vn -0.962446 0.191962 -0.191961
vn -0.381504 0.921026 0.078522
vn -0.189138 0.963563 0.189138
vn -0.189138 0.963563 -0.189138
vn -0.381504 0.921026 -0.078522
vn -0.270599 -0.923879 0.270600
vn -0.381504 -0.921026 0.078522
vn -0.189138 -0.963563 0.189138
vn -0.862857 -0.357407 0.357406
vn -0.908496 -0.181729 0.376310
vn -0.962446 -0.191962 0.191961
vn -0.908496 -0.376311 0.181729
vn -0.908496 -0.181729 0.376310
vn -0.908496 0.181729 0.376310
vn -0.962446 0.191962 0.191961
vn -0.962446 -0.191962 0.191961
vn -0.908496 0.181729 0.376310
vn -0.862856 0.357407 0.357406
vn -0.908496 0.376311 0.181729
vn -0.962446 0.191962 0.191961
vn -0.270599 0.923879 0.270600
vn -0.189138 0.963563 0.189138
vn -0.381504 0.921026 0.078522
vn -0.078522 -0.921026 0.381505
vn -0.270599 -0.923879 0.270600
vn -0.189138 -0.963563 0.189138
vn -0.181729 -0.376312 0.908495
vn -0.254705 -0.254706 0.932872
vn -0.376310 -0.181730 0.908496
vn -0.357406 -0.357407 0.862856
vn -0.254705 -0.254706 0.932872
vn -0.254705 0.254706 0.932872
vn -0.376310 0.181730 0.908496
vn -0.376310 -0.181730 0.908496
vn -0.254705 0.254706 0.932872
vn -0.181729 0.376312 0.908495
vn -0.357406 0.357407 0.862856
vn -0.376310 0.181730 0.908496
vn -0.078522 0.921026 0.381505
vn -0.189138 0.963563 0.189138
vn -0.270599 0.923879 0.270600
vn 0.189138 0.963563 0.189138
vn 0.189138 0.963563 -0.189138
vn -0.189138 0.963563 -0.189138
vn -0.189138 0.963563 0.189138
vn -0.189138 -0.963563 -0.189138
vn 0.189138 -0.963563 -0.189138
vn 0.189138 -0.963563 0.189138
vn -0.189138 -0.963563 0.189138
vn 0.000000 0.759406 0.650618
vn 0.000000 0.759406 0.650618
vn 0.000000 0.759406 0.650618
vn 0.000000 0.759406 0.650618
vn -0.759406 0.000000 0.650617
vn -0.759406 0.000000 0.650617
vn -0.759406 0.000000 0.650617
vn -0.759406 0.000000 0.650617
vn 0.000000 -0.759406 0.650618
vn 0.000000 -0.759406 0.650618
vn 0.000000 -0.759406 0.650618
vn 0.000000 -0.759406 0.650618
vn 0.759406 0.000000 0.650617
vn 0.759406 0.000000 0.650617
vn 0.759406 0.000000 0.650617
vn 0.759406 0.000000 0.650617
vn 0.000000 0.000000 1.000000
vn 0.000000 0.000000 1.000000
vn 0.000000 0.000000 1.000000
vn 0.000000 0.000000 1.000000
vn 0.000000 0.000000 1.000000
vn 0.000000 0.000000 1.000000
vn 0.000000 0.000000 1.000000
vn 0.000000 0.000000 1.000000
vn 0.000000 1.000000 0.000000
vn 0.000000 1.000000 0.000000
vn 0.000000 1.000000 0.000000
vn 0.000000 1.000000 0.000000
vn -1.000000 0.000000 0.000000
vn -1.000000 0.000000 0.000000
vn -1.000000 0.000000 0.000000
vn -1.000000 0.000000 0.000000
vn 0.000000 -1.000000 0.000000
vn 0.000000 -1.000000 0.000000
vn 0.000000 -1.000000 0.000000
vn 0.000000 -1.000000 0.000000
vn 1.000000 0.000000 0.000000
vn 1.000000 0.000000 0.000000
vn 1.000000 0.000000 0.000000
vn 1.000000 0.000000 0.000000
s off
g _Mesh1
usemtl aiStandardSurface5SG
f 2/1/1 6/84/2 5/83/3 1/78/4
f 6/84/5 18/76/6 17/6/7 5/83/8
f 30/7/9 42/82/10 41/81/11 29/73/12
f 42/82/13 54/79/14 53/77/15 41/81/16
f 7/13/17 6/2/18 2/80/19
f 7/13/20 19/14/21 18/5/22 6/2/23
f 19/14/24 31/15/25 30/74/26 18/5/27
f 31/15/28 43/16/29 42/8/30 30/74/31
f 43/16/32 54/11/33 42/8/34
f 8/17/35 7/13/36 2/80/37
f 8/17/38 20/18/39 19/14/40 7/13/41
f 20/18/42 32/19/43 31/15/44 19/14/45
f 32/19/46 44/20/47 43/16/48 31/15/49
f 44/20/50 54/11/51 43/16/52
f 3/21/53 9/22/54 8/17/55 2/80/56
f 9/22/57 21/23/58 20/18/59 8/17/60
f 21/23/61 33/24/62 32/19/63 20/18/64
f 33/24/65 45/25/66 44/20/67 32/19/68
f 45/25/69 55/26/70 54/11/71 44/20/72
f 10/27/73 9/22/74 3/21/75
f 10/27/76 22/28/77 21/23/78 9/22/79
f 22/28/80 34/29/81 33/24/82 21/23/83
f 34/29/84 46/30/85 45/25/86 33/24/87
f 46/30/88 55/26/89 45/25/90
f 11/31/91 10/27/92 3/21/93
f 11/31/94 23/32/95 22/28/96 10/27/97
f 23/32/98 35/33/99 34/29/100 22/28/101
f 35/33/102 47/34/103 46/30/104 34/29/105
f 47/34/106 55/26/107 46/30/108
f 4/35/109 12/36/110 11/31/111 3/21/112
f 12/36/113 24/37/114 23/32/115 11/31/116
f 24/37/117 36/38/118 35/33/119 23/32/120
f 36/38/121 48/39/122 47/34/123 35/33/124
f 48/39/125 56/40/126 55/26/127 47/34/128
f 13/41/129 12/36/130 4/35/131
f 13/41/132 25/42/133 24/37/134 12/36/135
f 25/42/136 37/43/137 36/38/138 24/37/139
f 37/43/140 49/44/141 48/39/142 36/38/143
f 49/44/144 56/40/145 48/39/146
f 14/45/147 13/41/148 4/35/149
f 14/45/150 26/46/151 25/42/152 13/41/153
f 26/46/154 38/47/155 37/43/156 25/42/157
f 38/47/158 50/48/159 49/44/160 37/43/161
f 50/48/162 56/40/163 49/44/164
f 1/4/165 15/49/166 14/45/167 4/35/168
f 15/49/169 27/50/170 26/46/171 14/45/172
f 27/50/173 39/51/174 38/47/175 26/46/176
f 39/51/177 51/52/178 50/48/179 38/47/180
f 51/52/181 53/12/182 56/40/183 50/48/184
f 16/53/185 15/49/186 1/4/187
f 16/53/188 28/54/189 27/50/190 15/49/191
f 28/54/192 40/55/193 39/51/194 27/50/195
f 40/55/196 52/56/197 51/52/198 39/51/199
f 52/56/200 53/12/201 51/52/202
f 5/3/203 16/53/204 1/4/205
f 5/3/206 17/75/207 28/54/208 16/53/209
f 17/75/210 29/10/211 40/55/212 28/54/213
f 29/10/214 41/9/215 52/56/216 40/55/217
f 41/9/218 53/12/219 52/56/220
f 54/79/221 55/26/222 56/40/223 53/77/224
f 4/35/225 3/21/226 2/1/227 1/78/228
f 18/76/229 58/72/230 57/58/231 17/6/232
f 30/74/233 60/70/234 58/57/235 18/5/236
f 29/73/237 59/69/238 60/59/239 30/7/240
f 17/75/241 57/71/242 59/60/243 29/10/244
f 62/61/245 64/63/246 63/64/247 61/62/248
f 66/87/249 68/91/250 67/89/251 65/85/252
f 58/72/253 66/65/254 65/86/255 57/58/256
f 60/70/257 68/66/258 66/88/259 58/57/260
f 59/69/261 67/67/262 68/92/263 60/59/264
f 57/71/265 65/68/266 67/90/267 59/60/268
