# This file uses centimeters as units for non-parametric coordinates.

mtllib 6666.mtl
g default
v -75.586426 -11.409350 1.200000
v -51.186428 -11.409350 1.200000
v -51.186428 -11.409350 -1.200000
v -75.586426 -11.409350 -1.200000
v -75.586426 -11.321482 1.412132
v -51.186428 -11.321482 1.412132
v -51.036430 -11.321482 1.350000
v -50.974297 -11.321482 1.200000
v -50.974297 -11.321482 -1.200000
v -51.036430 -11.321482 -1.350000
v -51.186428 -11.321482 -1.412132
v -75.586426 -11.321482 -1.412132
v -75.736427 -11.321482 -1.350000
v -75.798561 -11.321482 -1.200000
v -75.798561 -11.321482 1.200000
v -75.736427 -11.321482 1.350000
v -75.586426 -11.109350 1.500000
v -51.186428 -11.109350 1.500000
v -50.974297 -11.109350 1.412132
v -50.886429 -11.109350 1.200000
v -50.886429 -11.109350 -1.200000
v -50.974297 -11.109350 -1.412132
v -51.186428 -11.109350 -1.500000
v -75.586426 -11.109350 -1.500000
v -75.798561 -11.109350 -1.412132
v -75.886429 -11.109350 -1.200000
v -75.886429 -11.109350 1.200000
v -75.798561 -11.109350 1.412132
v -75.586426 11.109350 1.500000
v -51.186428 11.109350 1.500000
v -50.974297 11.109350 1.412132
v -50.886429 11.109350 1.200000
v -50.886429 11.109350 -1.200000
v -50.974297 11.109350 -1.412132
v -51.186428 11.109350 -1.500000
v -75.586426 11.109350 -1.500000
v -75.798561 11.109350 -1.412132
v -75.886429 11.109350 -1.200000
v -75.886429 11.109350 1.200000
v -75.798561 11.109350 1.412132
v -75.586426 11.321482 1.412132
v -51.186428 11.321482 1.412132
v -51.036430 11.321482 1.350000
v -50.974297 11.321482 1.200000
v -50.974297 11.321482 -1.200000
v -51.036430 11.321482 -1.350000
v -51.186428 11.321482 -1.412132
v -75.586426 11.321482 -1.412132
v -75.736427 11.321482 -1.350000
v -75.798561 11.321482 -1.200000
v -75.798561 11.321482 1.200000
v -75.736427 11.321482 1.350000
v -75.586426 11.409350 1.200000
v -51.186428 11.409350 1.200000
v -51.186428 11.409350 -1.200000
v -75.586426 11.409350 -1.200000
v -74.611511 -10.134428 0.652748
v -52.161350 -10.134428 0.652748
v -74.611511 10.134428 0.652748
v -52.161350 10.134428 0.652748
v -74.611511 -10.134428 0.168614
v -52.161350 -10.134428 0.168614
v -74.611511 10.134428 0.168614
v -52.161350 10.134428 0.168614
v -74.611511 -10.134428 0.013687
v -52.161350 -10.134428 0.013687
v -74.611511 10.134428 0.013687
v -52.161350 10.134428 0.013687
vt 0.076838 0.547068
vt 0.120456 0.599573
vt 0.109116 0.070878
vt 0.106566 0.075474
vt 0.124978 0.602200
vt 0.058251 0.126143
vt 0.565625 0.537089
vt 0.514890 0.592302
vt 0.503856 0.063483
vt 0.499334 0.060856
vt 0.517440 0.587707
vt 0.506559 0.068190
vt 0.121678 0.597078
vt 0.125505 0.598280
vt 0.509898 0.591215
vt 0.513676 0.589992
vt 0.121719 0.594361
vt 0.125642 0.594332
vt 0.509668 0.587270
vt 0.513570 0.587264
vt 0.118080 0.545954
vt 0.122508 0.552338
vt 0.126346 0.552940
vt 0.508139 0.546006
vt 0.511968 0.545336
vt 0.516278 0.538503
vt 0.122700 0.549206
vt 0.126310 0.549018
vt 0.508094 0.542065
vt 0.511678 0.542186
vt 0.122025 0.545848
vt 0.125923 0.545121
vt 0.508363 0.538136
vt 0.512313 0.538617
vt 0.107701 0.124688
vt 0.111673 0.124571
vt 0.115631 0.125049
vt 0.498402 0.117930
vt 0.502308 0.117200
vt 0.505583 0.111699
vt 0.112314 0.121000
vt 0.115900 0.121119
vt 0.498014 0.114033
vt 0.501627 0.113844
vt 0.112027 0.117848
vt 0.115857 0.117178
vt 0.497977 0.110111
vt 0.501815 0.110713
vt 0.110436 0.075916
vt 0.114337 0.075910
vt 0.498671 0.068723
vt 0.502594 0.068695
vt 0.110330 0.073188
vt 0.114108 0.071965
vt 0.498808 0.064776
vt 0.502635 0.065978
vt 0.142238 0.624154
vt 0.036348 0.143624
vt 0.587498 0.519621
vt 0.482058 0.038908
vt 0.950099 0.968926
vt 0.950283 0.577014
vt 0.596292 0.968741
vt 0.596494 0.576821
vt 0.035293 0.531341
vt 0.494121 0.628727
vt 0.589178 0.131622
vt 0.129901 0.034446
vt 0.627879 0.431950
vt 0.631807 0.044977
vt 0.578162 0.131933
vt 0.481895 0.027889
vt 0.493962 0.617705
vt 0.598517 0.519309
vt 0.981164 0.048528
vt 0.130060 0.045469
vt 0.046311 0.531058
vt 0.142401 0.635174
vt 0.555498 0.115721
vt 0.510571 0.595110
vt 0.113436 0.068070
vt 0.068943 0.547282
vt 0.547587 0.115942
vt 0.506260 0.117090
vt 0.108178 0.118899
vt 0.066191 0.125910
vt 0.515817 0.544286
vt 0.118741 0.551352
vt 0.557703 0.537315
vt 0.117754 0.594866
vt 0.551543 0.115832
vt 0.561664 0.537202
vt 0.062221 0.126027
vt 0.072891 0.547175
vt 0.025330 0.143907
vt 0.977236 0.435490
vn 0.189138 -0.963563 0.189138
vn 0.078522 -0.921026 0.381505
vn -0.078522 -0.921026 0.381505
vn -0.189138 -0.963563 0.189138
vn 0.181729 -0.376312 0.908495
vn 0.254705 -0.254706 0.932872
vn -0.254705 -0.254706 0.932872
vn -0.181729 -0.376312 0.908495
vn 0.254705 0.254706 0.932872
vn 0.181729 0.376312 0.908495
vn -0.181729 0.376312 0.908495
vn -0.254705 0.254706 0.932872
vn 0.078522 0.921026 0.381505
vn 0.189138 0.963563 0.189138
vn -0.189138 0.963563 0.189138
vn -0.078522 0.921026 0.381505
vn 0.270599 -0.923879 0.270600
vn 0.078522 -0.921026 0.381505
vn 0.189138 -0.963563 0.189138
vn 0.357406 -0.357407 0.862856
vn 0.376310 -0.181730 0.908496
vn 0.254705 -0.254706 0.932872
vn 0.181729 -0.376312 0.908495
vn 0.376310 -0.181730 0.908496
vn 0.376310 0.181730 0.908496
vn 0.254705 0.254706 0.932872
vn 0.254705 -0.254706 0.932872
vn 0.376310 0.181730 0.908496
vn 0.357406 0.357407 0.862856
vn 0.181729 0.376312 0.908495
vn 0.254705 0.254706 0.932872
vn 0.270599 0.923879 0.270600
vn 0.189138 0.963563 0.189138
vn 0.078522 0.921026 0.381505
vn 0.381504 -0.921026 0.078522
vn 0.270599 -0.923879 0.270600
vn 0.189138 -0.963563 0.189138
vn 0.908496 -0.376311 0.181729
vn 0.962446 -0.191962 0.191961
vn 0.908496 -0.181729 0.376310
vn 0.862857 -0.357407 0.357406
vn 0.962446 -0.191962 0.191961
vn 0.962446 0.191962 0.191961
vn 0.908496 0.181729 0.376310
vn 0.908496 -0.181729 0.376310
vn 0.962446 0.191962 0.191961
vn 0.908496 0.376311 0.181729
vn 0.862857 0.357407 0.357406
vn 0.908496 0.181729 0.376310
vn 0.381504 0.921026 0.078522
vn 0.189138 0.963563 0.189138
vn 0.270599 0.923879 0.270600
vn 0.189138 -0.963563 -0.189138
vn 0.381504 -0.921026 -0.078522
vn 0.381504 -0.921026 0.078522
vn 0.189138 -0.963563 0.189138
vn 0.908496 -0.376311 -0.181729
vn 0.962446 -0.191962 -0.191961
vn 0.962446 -0.191962 0.191961
vn 0.908496 -0.376311 0.181729
vn 0.962446 -0.191962 -0.191961
vn 0.962446 0.191962 -0.191961
vn 0.962446 0.191962 0.191961
vn 0.962446 -0.191962 0.191961
vn 0.962446 0.191962 -0.191961
vn 0.908496 0.376311 -0.181729
vn 0.908496 0.376311 0.181729
vn 0.962446 0.191962 0.191961
vn 0.381504 0.921026 -0.078522
vn 0.189138 0.963563 -0.189138
vn 0.189138 0.963563 0.189138
vn 0.381504 0.921026 0.078522
vn 0.270599 -0.923879 -0.270600
vn 0.381504 -0.921026 -0.078522
vn 0.189138 -0.963563 -0.189138
vn 0.862857 -0.357407 -0.357406
vn 0.908496 -0.181729 -0.376310
vn 0.962446 -0.191962 -0.191961
vn 0.908496 -0.376311 -0.181729
vn 0.908496 -0.181729 -0.376310
vn 0.908496 0.181729 -0.376310
vn 0.962446 0.191962 -0.191961
vn 0.962446 -0.191962 -0.191961
vn 0.908496 0.181729 -0.376310
vn 0.862856 0.357407 -0.357406
vn 0.908496 0.376311 -0.181729
vn 0.962446 0.191962 -0.191961
vn 0.270599 0.923879 -0.270600
vn 0.189138 0.963563 -0.189138
vn 0.381504 0.921026 -0.078522
vn 0.078522 -0.921026 -0.381505
vn 0.270599 -0.923879 -0.270600
vn 0.189138 -0.963563 -0.189138
vn 0.181729 -0.376312 -0.908495
vn 0.191961 -0.191962 -0.962445
vn 0.376310 -0.181730 -0.908496
vn 0.357406 -0.357407 -0.862856
vn 0.191961 -0.191962 -0.962445
vn 0.191961 0.191962 -0.962445
vn 0.376310 0.181730 -0.908496
vn 0.376310 -0.181730 -0.908496
vn 0.191961 0.191962 -0.962445
vn 0.181729 0.376312 -0.908495
vn 0.357406 0.357407 -0.862856
vn 0.376310 0.181730 -0.908496
vn 0.078522 0.921026 -0.381505
vn 0.189138 0.963563 -0.189138
vn 0.270599 0.923879 -0.270600
vn -0.189138 -0.963563 -0.189138
vn -0.078522 -0.921026 -0.381505
vn 0.078522 -0.921026 -0.381505
vn 0.189138 -0.963563 -0.189138
vn -0.181729 -0.376312 -0.908495
vn -0.191961 -0.191962 -0.962445
vn 0.191961 -0.191962 -0.962445
vn 0.181729 -0.376312 -0.908495
vn -0.191961 -0.191962 -0.962445
vn -0.191961 0.191962 -0.962445
vn 0.191961 0.191962 -0.962445
vn 0.191961 -0.191962 -0.962445
vn -0.191961 0.191962 -0.962445
vn -0.181729 0.376312 -0.908495
vn 0.181729 0.376312 -0.908495
vn 0.191961 0.191962 -0.962445
vn -0.078522 0.921026 -0.381505
vn -0.189138 0.963563 -0.189138
vn 0.189138 0.963563 -0.189138
vn 0.078522 0.921026 -0.381505
vn -0.270599 -0.923879 -0.270600
vn -0.078522 -0.921026 -0.381505
vn -0.189138 -0.963563 -0.189138
vn -0.357406 -0.357407 -0.862856
vn -0.376310 -0.181730 -0.908496
vn -0.191961 -0.191962 -0.962445
vn -0.181729 -0.376312 -0.908495
vn -0.376310 -0.181730 -0.908496
vn -0.376310 0.181730 -0.908496
vn -0.191961 0.191962 -0.962445
vn -0.191961 -0.191962 -0.962445
vn -0.376310 0.181730 -0.908496
vn -0.357406 0.357407 -0.862856
vn -0.181729 0.376312 -0.908495
vn -0.191961 0.191962 -0.962445
vn -0.270599 0.923879 -0.270600
vn -0.189138 0.963563 -0.189138
vn -0.078522 0.921026 -0.381505
vn -0.381504 -0.921026 -0.078522
vn -0.270599 -0.923879 -0.270600
vn -0.189138 -0.963563 -0.189138
vn -0.908496 -0.376311 -0.181729
vn -0.962446 -0.191962 -0.191961
vn -0.908496 -0.181729 -0.376310
vn -0.862857 -0.357407 -0.357406
vn -0.962446 -0.191962 -0.191961
vn -0.962446 0.191962 -0.191961
vn -0.908496 0.181729 -0.376310
vn -0.908496 -0.181729 -0.376310
vn -0.962446 0.191962 -0.191961
vn -0.908496 0.376311 -0.181729
vn -0.862857 0.357407 -0.357406
vn -0.908496 0.181729 -0.376310
vn -0.381504 0.921026 -0.078522
vn -0.189138 0.963563 -0.189138
vn -0.270599 0.923879 -0.270600
vn -0.189138 -0.963563 0.189138
vn -0.381504 -0.921026 0.078522
vn -0.381504 -0.921026 -0.078522
vn -0.189138 -0.963563 -0.189138
vn -0.908496 -0.376311 0.181729
vn -0.962446 -0.191962 0.191961
vn -0.962446 -0.191962 -0.191961
vn -0.908496 -0.376311 -0.181729
vn -0.962446 -0.191962 0.191961
vn -0.962446 0.191962 0.191961
vn -0.962446 0.191962 -0.191961
vn -0.962446 -0.191962 -0.191961
vn -0.962446 0.191962 0.191961
vn -0.908496 0.376311 0.181729
vn -0.908496 0.376311 -0.181729
vn -0.962446 0.191962 -0.191961
vn -0.381504 0.921026 0.078522
vn -0.189138 0.963563 0.189138
vn -0.189138 0.963563 -0.189138
vn -0.381504 0.921026 -0.078522
vn -0.270599 -0.923879 0.270600
vn -0.381504 -0.921026 0.078522
vn -0.189138 -0.963563 0.189138
vn -0.862857 -0.357407 0.357406
vn -0.908496 -0.181729 0.376310
vn -0.962446 -0.191962 0.191961
vn -0.908496 -0.376311 0.181729
vn -0.908496 -0.181729 0.376310
vn -0.908496 0.181729 0.376310
vn -0.962446 0.191962 0.191961
vn -0.962446 -0.191962 0.191961
vn -0.908496 0.181729 0.376310
vn -0.862856 0.357407 0.357406
vn -0.908496 0.376311 0.181729
vn -0.962446 0.191962 0.191961
vn -0.270599 0.923879 0.270600
vn -0.189138 0.963563 0.189138
vn -0.381504 0.921026 0.078522
vn -0.078522 -0.921026 0.381505
vn -0.270599 -0.923879 0.270600
vn -0.189138 -0.963563 0.189138
vn -0.181729 -0.376312 0.908495
vn -0.254705 -0.254706 0.932872
vn -0.376310 -0.181730 0.908496
vn -0.357406 -0.357407 0.862856
vn -0.254705 -0.254706 0.932872
vn -0.254705 0.254706 0.932872
vn -0.376310 0.181730 0.908496
vn -0.376310 -0.181730 0.908496
vn -0.254705 0.254706 0.932872
vn -0.181729 0.376312 0.908495
vn -0.357406 0.357407 0.862856
vn -0.376310 0.181730 0.908496
vn -0.078522 0.921026 0.381505
vn -0.189138 0.963563 0.189138
vn -0.270599 0.923879 0.270600
vn 0.189138 0.963563 0.189138
vn 0.189138 0.963563 -0.189138
vn -0.189138 0.963563 -0.189138
vn -0.189138 0.963563 0.189138
vn -0.189138 -0.963563 -0.189138
vn 0.189138 -0.963563 -0.189138
vn 0.189138 -0.963563 0.189138
vn -0.189138 -0.963563 0.189138
vn 0.000000 0.655956 0.754799
vn 0.000000 0.655956 0.754799
vn 0.000000 0.655956 0.754799
vn 0.000000 0.655956 0.754799
vn -0.655956 0.000000 0.754799
vn -0.655956 0.000000 0.754799
vn -0.655956 0.000000 0.754799
vn -0.655956 0.000000 0.754799
vn 0.000000 -0.655956 0.754799
vn 0.000000 -0.655956 0.754799
vn 0.000000 -0.655956 0.754799
vn 0.000000 -0.655956 0.754799
vn 0.655956 0.000000 0.754799
vn 0.655956 0.000000 0.754799
vn 0.655956 0.000000 0.754799
vn 0.655956 0.000000 0.754799
vn 0.000000 0.000000 1.000000
vn 0.000000 0.000000 1.000000
vn 0.000000 0.000000 1.000000
vn 0.000000 0.000000 1.000000
vn 0.000000 0.000000 1.000000
vn 0.000000 0.000000 1.000000
vn 0.000000 0.000000 1.000000
vn 0.000000 0.000000 1.000000
vn 0.000000 1.000000 0.000000
vn 0.000000 1.000000 0.000000
vn 0.000000 1.000000 0.000000
vn 0.000000 1.000000 0.000000
vn -1.000000 0.000000 0.000000
vn -1.000000 0.000000 0.000000
vn -1.000000 0.000000 0.000000
vn -1.000000 0.000000 0.000000
vn 0.000000 -1.000000 0.000000
vn 0.000000 -1.000000 0.000000
vn 0.000000 -1.000000 0.000000
vn 0.000000 -1.000000 0.000000
vn 1.000000 0.000000 0.000000
vn 1.000000 0.000000 0.000000
vn 1.000000 0.000000 0.000000
vn 1.000000 0.000000 0.000000
s off
g _Mesh3
usemtl aiStandardSurface7SG
f 2/1/1 6/94/2 5/93/3 1/86/4
f 6/94/5 18/82/6 17/6/7 5/93/8
f 30/7/9 42/92/10 41/91/11 29/79/12
f 42/92/13 54/89/14 53/83/15 41/91/16
f 7/13/17 6/2/18 2/90/19
f 7/13/20 19/14/21 18/5/22 6/2/23
f 19/14/24 31/15/25 30/80/26 18/5/27
f 31/15/28 43/16/29 42/8/30 30/80/31
f 43/16/32 54/11/33 42/8/34
f 8/17/35 7/13/36 2/90/37
f 8/17/38 20/18/39 19/14/40 7/13/41
f 20/18/42 32/19/43 31/15/44 19/14/45
f 32/19/46 44/20/47 43/16/48 31/15/49
f 44/20/50 54/11/51 43/16/52
f 3/88/53 9/22/54 8/17/55 2/90/56
f 9/22/57 21/23/58 20/18/59 8/17/60
f 21/23/61 33/24/62 32/19/63 20/18/64
f 33/24/65 45/25/66 44/20/67 32/19/68
f 45/25/69 55/87/70 54/11/71 44/20/72
f 10/27/73 9/22/74 3/88/75
f 10/27/76 22/28/77 21/23/78 9/22/79
f 22/28/80 34/29/81 33/24/82 21/23/83
f 34/29/84 46/30/85 45/25/86 33/24/87
f 46/30/88 55/87/89 45/25/90
f 11/31/91 10/27/92 3/88/93
f 11/31/94 23/32/95 22/28/96 10/27/97
f 23/32/98 35/33/99 34/29/100 22/28/101
f 35/33/102 47/34/103 46/30/104 34/29/105
f 47/34/106 55/87/107 46/30/108
f 4/35/109 12/36/110 11/31/111 3/21/112
f 12/36/113 24/37/114 23/32/115 11/31/116
f 24/37/117 36/38/118 35/33/119 23/32/120
f 36/38/121 48/39/122 47/34/123 35/33/124
f 48/39/125 56/84/126 55/26/127 47/34/128
f 13/41/129 12/36/130 4/85/131
f 13/41/132 25/42/133 24/37/134 12/36/135
f 25/42/136 37/43/137 36/38/138 24/37/139
f 37/43/140 49/44/141 48/39/142 36/38/143
f 49/44/144 56/40/145 48/39/146
f 14/45/147 13/41/148 4/85/149
f 14/45/150 26/46/151 25/42/152 13/41/153
f 26/46/154 38/47/155 37/43/156 25/42/157
f 38/47/158 50/48/159 49/44/160 37/43/161
f 50/48/162 56/40/163 49/44/164
f 1/4/165 15/49/166 14/45/167 4/85/168
f 15/49/169 27/50/170 26/46/171 14/45/172
f 27/50/173 39/51/174 38/47/175 26/46/176
f 39/51/177 51/52/178 50/48/179 38/47/180
f 51/52/181 53/12/182 56/40/183 50/48/184
f 16/53/185 15/49/186 1/4/187
f 16/53/188 28/54/189 27/50/190 15/49/191
f 28/54/192 40/55/193 39/51/194 27/50/195
f 40/55/196 52/56/197 51/52/198 39/51/199
f 52/56/200 53/12/201 51/52/202
f 5/3/203 16/53/204 1/4/205
f 5/3/206 17/81/207 28/54/208 16/53/209
f 17/81/210 29/10/211 40/55/212 28/54/213
f 29/10/214 41/9/215 52/56/216 40/55/217
f 41/9/218 53/12/219 52/56/220
f 54/89/221 55/26/222 56/84/223 53/83/224
f 4/35/225 3/21/226 2/1/227 1/86/228
f 18/82/229 58/77/230 57/58/231 17/6/232
f 30/80/233 60/73/234 58/57/235 18/5/236
f 29/79/237 59/71/238 60/59/239 30/7/240
f 17/81/241 57/76/242 59/60/243 29/10/244
f 62/61/245 64/63/246 63/64/247 61/62/248
f 66/96/249 68/69/250 67/70/251 65/75/252
f 58/77/253 66/65/254 65/95/255 57/58/256
f 60/73/257 68/66/258 66/78/259 58/57/260
f 59/71/261 67/67/262 68/74/263 60/59/264
f 57/76/265 65/68/266 67/72/267 59/60/268
